<svg xmlns="http://www.w3.org/2000/svg" xmlns:xlink="http://www.w3.org/1999/xlink" width="1080" zoomAndPan="magnify" viewBox="0 0 810 809.999993" height="1080" preserveAspectRatio="xMidYMid meet" version="1.0"><defs><clipPath id="ddaad1e24b"><path d="M 34 26 L 760 26 L 760 774 L 34 774 Z M 34 26 " clip-rule="nonzero"/></clipPath><clipPath id="238dcd4805"><path d="M -112.320312 282.289062 L 519.636719 -140.78125 L 943.960938 493.046875 L 312 916.117188 Z M -112.320312 282.289062 " clip-rule="nonzero"/></clipPath><clipPath id="20438d763e"><path d="M -112.320312 282.289062 L 519.636719 -140.78125 L 943.960938 493.046875 L 312 916.117188 Z M -112.320312 282.289062 " clip-rule="nonzero"/></clipPath><clipPath id="1c463c7933"><path d="M 34 26 L 742 26 L 742 740 L 34 740 Z M 34 26 " clip-rule="nonzero"/></clipPath><clipPath id="0177a91c8b"><path d="M -112.320312 282.289062 L 519.636719 -140.78125 L 943.960938 493.046875 L 312 916.117188 Z M -112.320312 282.289062 " clip-rule="nonzero"/></clipPath><clipPath id="f7c209a935"><path d="M -112.320312 282.289062 L 519.636719 -140.78125 L 943.960938 493.046875 L 312 916.117188 Z M -112.320312 282.289062 " clip-rule="nonzero"/></clipPath><clipPath id="ec755e42bd"><path d="M 511 417 L 597 417 L 597 678 L 511 678 Z M 511 417 " clip-rule="nonzero"/></clipPath><clipPath id="9c880f59b5"><path d="M -112.320312 282.289062 L 519.636719 -140.78125 L 943.960938 493.046875 L 312 916.117188 Z M -112.320312 282.289062 " clip-rule="nonzero"/></clipPath><clipPath id="7a1cf83bfd"><path d="M -112.320312 282.289062 L 519.636719 -140.78125 L 943.960938 493.046875 L 312 916.117188 Z M -112.320312 282.289062 " clip-rule="nonzero"/></clipPath><clipPath id="3218563151"><path d="M 336.324219 489.40625 L 415.820312 489.40625 L 415.820312 511.359375 L 336.324219 511.359375 Z M 336.324219 489.40625 " clip-rule="nonzero"/></clipPath><clipPath id="79abb1b072"><path d="M 347.300781 489.40625 L 404.835938 489.40625 C 407.746094 489.40625 410.539062 490.5625 412.597656 492.621094 C 414.65625 494.679688 415.8125 497.472656 415.8125 500.382812 C 415.8125 503.292969 414.65625 506.085938 412.597656 508.144531 C 410.539062 510.203125 407.746094 511.359375 404.835938 511.359375 L 347.300781 511.359375 C 344.390625 511.359375 341.597656 510.203125 339.539062 508.144531 C 337.480469 506.085938 336.324219 503.292969 336.324219 500.382812 C 336.324219 497.472656 337.480469 494.679688 339.539062 492.621094 C 341.597656 490.5625 344.390625 489.40625 347.300781 489.40625 Z M 347.300781 489.40625 " clip-rule="nonzero"/></clipPath></defs><g clip-path="url(#ddaad1e24b)"><g clip-path="url(#238dcd4805)"><g clip-path="url(#20438d763e)"><path fill="#f6c69e" d="M 758.628906 256.238281 L 702.46875 578.210938 C 691.308594 634.558594 658.230469 684.15625 610.507812 716.105469 L 575.085938 739.820312 C 483.996094 800.800781 360.699219 776.394531 299.71875 685.304688 C 270.328125 641.402344 229.914062 606.027344 182.519531 582.707031 L 61.355469 523.089844 C 42.8125 513.964844 32.644531 494.386719 34.761719 474.792969 C 38.273438 441.847656 73.628906 421.882812 103.851562 436.734375 C 280.1875 523.5 75.988281 423.019531 276.394531 521.636719 C 52.726562 325.835938 57.691406 332.648438 51.285156 318.199219 C 50.417969 316.90625 47.722656 309.351562 46.957031 303.332031 C 40.046875 253.175781 98.898438 222.367188 136.222656 255.023438 C 147.878906 265.234375 331.199219 425.71875 342.445312 435.5625 C 160.035156 163.09375 169.0625 176.996094 166.8125 172.4375 C 154.300781 146.996094 164.058594 117.511719 182.882812 104.910156 C 208.09375 86.191406 243.195312 92.691406 260.25 118.171875 L 437.597656 383.082031 C 337.183594 70.398438 343.253906 92.96875 343.144531 80.773438 C 342.429688 54.402344 363.695312 28.902344 392.703125 26.609375 C 415.058594 23.800781 440.074219 38.289062 448.535156 63.101562 L 546.675781 351.390625 L 582.253906 404.53125 C 594.183594 422.351562 621.6875 416.859375 625.84375 395.832031 C 639.453125 285.335938 638.117188 295.03125 639.203125 290.390625 C 651.082031 240.433594 690.78125 207.683594 709.5625 205.300781 C 738.203125 199.96875 764.796875 225.09375 758.628906 256.238281 Z M 758.628906 256.238281 " fill-opacity="1" fill-rule="nonzero"/></g></g></g><g clip-path="url(#1c463c7933)"><g clip-path="url(#0177a91c8b)"><g clip-path="url(#f7c209a935)"><path fill="#ffdaba" d="M 741.375 212.273438 L 675.933594 578.421875 C 664.851562 620.167969 641.582031 657.554688 609.230469 685.835938 C 507.328125 775.070312 370.101562 747.183594 306.328125 651.921875 C 276.9375 608.023438 236.523438 572.648438 189.128906 549.328125 C 27.273438 471.277344 36.714844 475.882812 34.761719 474.792969 C 36.722656 456.433594 49.144531 440.34375 67.417969 434.257812 C 77.675781 430.828125 85.292969 431.464844 94.695312 433.324219 C 184.78125 476.019531 276.523438 521.554688 276.394531 521.636719 C 287.117188 514.460938 288.113281 499.074219 278.40625 490.574219 C 69.582031 307.773438 81.667969 319.726562 75.632812 309.839844 C 66.5625 295.539062 64.753906 275.058594 72.925781 258.253906 C 76.34375 251.179688 81.4375 245.273438 81.941406 244.925781 C 99.902344 238.351562 120.8125 241.546875 136.222656 255.023438 C 156.777344 273.019531 320.21875 416.109375 342.445312 435.5625 C 153.5625 153.421875 168.601562 176.542969 165.65625 169.972656 C 162.347656 162.40625 160.929688 154.152344 161.136719 147.40625 C 161.226562 139.179688 163.679688 131.582031 163.804688 131.496094 C 178.550781 87.554688 235.746094 81.570312 260.25 118.171875 L 437.597656 383.082031 C 340.179688 79.738281 345.230469 95.742188 344.730469 93.535156 C 335.066406 56.042969 368.621094 18.183594 410.199219 27.976562 C 412.90625 28.683594 402.847656 2.070312 529.191406 368.519531 L 564.773438 421.667969 C 575.007812 436.957031 601.953125 440.296875 616.523438 419.425781 C 626.316406 405.40625 626.59375 389.769531 628.882812 371.222656 C 639.160156 287.773438 637.863281 297.644531 638.804688 292.183594 C 643.492188 270.421875 654.144531 248.804688 670.945312 230.898438 C 678.039062 223.375 690.136719 212.816406 699.070312 208.628906 C 711.207031 202.964844 724.722656 203.539062 735.816406 209.003906 C 738.832031 210.433594 741.234375 212.183594 741.375 212.273438 Z M 741.375 212.273438 " fill-opacity="1" fill-rule="nonzero"/></g></g></g><g clip-path="url(#ec755e42bd)"><g clip-path="url(#9c880f59b5)"><g clip-path="url(#7a1cf83bfd)"><path fill="#f6c69e" d="M 560.777344 675.203125 C 555.253906 678.898438 547.789062 677.421875 544.089844 671.898438 C 490.632812 592.046875 504.605469 483.996094 576.585938 420.554688 C 581.59375 416.160156 589.175781 416.648438 593.570312 421.628906 C 597.960938 426.613281 597.480469 434.21875 592.496094 438.605469 C 529.523438 494.101562 517.3125 588.644531 564.085938 658.511719 C 567.78125 664.035156 566.296875 671.507812 560.777344 675.203125 Z M 560.777344 675.203125 " fill-opacity="1" fill-rule="nonzero"/></g></g></g><g clip-path="url(#3218563151)"><g clip-path="url(#79abb1b072)"><path fill="#ffdaba" d="M 336.324219 489.40625 L 415.820312 489.40625 L 415.820312 511.359375 L 336.324219 511.359375 Z M 336.324219 489.40625 " fill-opacity="1" fill-rule="nonzero"/></g></g></svg>